<svg xmlns="http://www.w3.org/2000/svg" width="24" height="24" fill="none"><rect id="backgroundrect" width="100%" height="100%" x="0" y="0" fill="none" stroke="none"/>


<g class="currentLayer" style=""><title>Layer 1</title><path d="M17.2803 9.28033C17.5732 8.98744 17.5732 8.51256 17.2803 8.21967C16.9874 7.92678 16.5126 7.92678 16.2197 8.21967L10.25 14.1893L7.78033 11.7197C7.48744 11.4268 7.01256 11.4268 6.71967 11.7197C6.42678 12.0126 6.42678 12.4874 6.71967 12.7803L9.71967 15.7803C10.0126 16.0732 10.4874 16.0732 10.7803 15.7803L17.2803 9.28033Z" fill="#ffffff" id="svg_1" class="" stroke="#ffffff" stroke-opacity="1" fill-opacity="1"/><path fill-rule="evenodd" clip-rule="evenodd" d="M12,1 C5.92487,1 1,5.92487 1,12 C1,18.0751 5.92487,23 12,23 C18.0751,23 23,18.0751 23,12 C23,5.92487 18.0751,1 12,1 zM2.5,12 C2.5,6.75329 6.75329,2.5 12,2.5 C17.2467,2.5 21.5,6.75329 21.5,12 C21.5,17.2467 17.2467,21.5 12,21.5 C6.75329,21.5 2.5,17.2467 2.5,12 z" fill="#ffffff" id="svg_2" class="" stroke="#ffffff" stroke-opacity="1" fill-opacity="1"/></g></svg>