<svg xmlns="http://www.w3.org/2000/svg" xmlns:xlink="http://www.w3.org/1999/xlink" width="20" height="20" version="1.1" style=""><rect id="backgroundrect" width="100%" height="100%" x="0" y="0" fill="none" stroke="none"/>

<g class="currentLayer" style=""><title>Layer 1</title><g id="surface1" class="selected" fill="#ffffff" fill-opacity="1">
<path style="stroke: none; fill-rule: evenodd;" d="M 13.332031 1.457031 L 13.332031 2.5 L 17.707031 2.5 C 18.054688 2.5 18.332031 2.78125 18.332031 3.125 C 18.332031 3.46875 18.054688 3.75 17.707031 3.75 L 2.292969 3.75 C 1.945312 3.75 1.667969 3.46875 1.667969 3.125 C 1.667969 2.78125 1.945312 2.5 2.292969 2.5 L 6.667969 2.5 L 6.667969 1.457031 C 6.667969 0.652344 7.320312 0 8.125 0 L 11.875 0 C 12.679688 0 13.332031 0.652344 13.332031 1.457031 Z M 7.917969 1.457031 C 7.917969 1.34375 8.011719 1.25 8.125 1.25 L 11.875 1.25 C 11.988281 1.25 12.082031 1.34375 12.082031 1.457031 L 12.082031 2.5 L 7.917969 2.5 Z M 7.917969 1.457031 " id="svg_1" fill="#ffffff" fill-opacity="1"/>
<path style="stroke: none; fill-rule: nonzero;" d="M 4.164062 5.148438 C 4.128906 4.804688 3.824219 4.554688 3.480469 4.585938 C 3.136719 4.621094 2.886719 4.925781 2.917969 5.269531 L 4.097656 17.433594 C 4.167969 18.179688 4.796875 18.75 5.546875 18.75 L 14.453125 18.75 C 15.203125 18.75 15.832031 18.179688 15.902344 17.433594 L 17.082031 5.269531 C 17.113281 4.925781 16.863281 4.621094 16.519531 4.585938 C 16.175781 4.554688 15.871094 4.804688 15.835938 5.148438 L 14.660156 17.3125 C 14.648438 17.417969 14.558594 17.5 14.453125 17.5 L 5.546875 17.5 C 5.441406 17.5 5.351562 17.417969 5.339844 17.3125 Z M 4.164062 5.148438 " id="svg_2" fill="#ffffff" fill-opacity="1"/>
<path style="stroke: none; fill-rule: nonzero;" d="M 7.671875 6.25 C 8.015625 6.230469 8.3125 6.492188 8.332031 6.839844 L 8.75 13.921875 C 8.769531 14.265625 8.507812 14.5625 8.160156 14.582031 C 7.816406 14.601562 7.519531 14.339844 7.5 13.996094 L 7.085938 6.910156 C 7.0625 6.566406 7.328125 6.269531 7.671875 6.25 Z M 7.671875 6.25 " id="svg_3" fill="#ffffff" fill-opacity="1"/>
<path style="stroke: none; fill-rule: nonzero;" d="M 12.914062 6.910156 C 12.9375 6.566406 12.671875 6.269531 12.328125 6.25 C 11.984375 6.230469 11.6875 6.492188 11.667969 6.839844 L 11.25 13.921875 C 11.230469 14.265625 11.492188 14.5625 11.839844 14.582031 C 12.183594 14.601562 12.480469 14.339844 12.5 13.996094 Z M 12.914062 6.910156 " id="svg_4" fill="#ffffff" fill-opacity="1"/>
</g></g></svg>